<svg width="1503" height="844" viewBox="0 0 1503 844" fill="none" xmlns="http://www.w3.org/2000/svg">
<rect width="1503" height="844" fill="#4B4E55"/>
<g filter="url(#filter0_d_10_5)">
<rect x="197" y="20" width="1277" height="803" rx="28" fill="#E6E6E6"/>
</g>
<g filter="url(#filter1_d_10_5)">
<path d="M23 42C23 29.2975 33.2975 19 46 19H209C221.703 19 232 29.2975 232 42V478.356V799C232 811.703 221.703 822 209 822H46C33.2974 822 23 811.703 23 799V42Z" fill="url(#paint0_linear_10_5)"/>
</g>
<g filter="url(#filter2_d_10_5)">
<rect x="269" y="52" width="213" height="173" rx="20" fill="white"/>
</g>
<g filter="url(#filter3_d_10_5)">
<rect x="495" y="52" width="213" height="173" rx="20" fill="white"/>
</g>
<g filter="url(#filter4_d_10_5)">
<rect x="721" y="52" width="213" height="173" rx="20" fill="white"/>
</g>
<g filter="url(#filter5_d_10_5)">
<rect x="947" y="52" width="213" height="173" rx="20" fill="white"/>
</g>
<g filter="url(#filter6_d_10_5)">
<rect x="1173" y="52" width="213" height="173" rx="20" fill="white"/>
</g>
<g filter="url(#filter7_d_10_5)">
<rect x="269" y="244" width="434" height="267" rx="20" fill="white"/>
</g>
<g filter="url(#filter8_d_10_5)">
<rect x="725" y="244" width="259" height="267" rx="20" fill="white"/>
</g>
<g filter="url(#filter9_d_10_5)">
<rect x="1006" y="244" width="434" height="267" rx="20" fill="white"/>
</g>
<g filter="url(#filter10_d_10_5)">
<rect x="269" y="530" width="1170" height="273" rx="20" fill="white"/>
</g>
<path d="M76.512 51.248C78.272 51.248 79.816 51.592 81.144 52.28C82.488 52.968 83.52 53.952 84.24 55.232C84.976 56.496 85.344 57.968 85.344 59.648C85.344 61.328 84.976 62.8 84.24 64.064C83.52 65.312 82.488 66.28 81.144 66.968C79.816 67.656 78.272 68 76.512 68H70.656V51.248H76.512ZM76.392 65.144C78.152 65.144 79.512 64.664 80.472 63.704C81.432 62.744 81.912 61.392 81.912 59.648C81.912 57.904 81.432 56.544 80.472 55.568C79.512 54.576 78.152 54.08 76.392 54.08H74.016V65.144H76.392ZM98.1311 64.808H91.4591L90.3551 68H86.8271L92.8511 51.224H96.7631L102.787 68H99.2351L98.1311 64.808ZM97.2191 62.12L94.7951 55.112L92.3711 62.12H97.2191ZM110.823 68.168C109.655 68.168 108.599 67.968 107.655 67.568C106.727 67.168 105.991 66.592 105.447 65.84C104.903 65.088 104.623 64.2 104.607 63.176H108.207C108.255 63.864 108.495 64.408 108.927 64.808C109.375 65.208 109.983 65.408 110.751 65.408C111.535 65.408 112.151 65.224 112.599 64.856C113.047 64.472 113.271 63.976 113.271 63.368C113.271 62.872 113.119 62.464 112.815 62.144C112.511 61.824 112.127 61.576 111.663 61.4C111.215 61.208 110.591 61 109.791 60.776C108.703 60.456 107.815 60.144 107.127 59.84C106.455 59.52 105.871 59.048 105.375 58.424C104.895 57.784 104.655 56.936 104.655 55.88C104.655 54.888 104.903 54.024 105.399 53.288C105.895 52.552 106.591 51.992 107.487 51.608C108.383 51.208 109.407 51.008 110.559 51.008C112.287 51.008 113.687 51.432 114.759 52.28C115.847 53.112 116.447 54.28 116.559 55.784H112.863C112.831 55.208 112.583 54.736 112.119 54.368C111.671 53.984 111.071 53.792 110.319 53.792C109.663 53.792 109.135 53.96 108.735 54.296C108.351 54.632 108.159 55.12 108.159 55.76C108.159 56.208 108.303 56.584 108.591 56.888C108.895 57.176 109.263 57.416 109.695 57.608C110.143 57.784 110.767 57.992 111.567 58.232C112.655 58.552 113.543 58.872 114.231 59.192C114.919 59.512 115.511 59.992 116.007 60.632C116.503 61.272 116.751 62.112 116.751 63.152C116.751 64.048 116.519 64.88 116.055 65.648C115.591 66.416 114.911 67.032 114.015 67.496C113.119 67.944 112.055 68.168 110.823 68.168ZM133.56 51.248V68H130.2V60.872H123.024V68H119.664V51.248H123.024V58.136H130.2V51.248H133.56ZM146.371 59.408C147.315 59.584 148.091 60.056 148.699 60.824C149.307 61.592 149.611 62.472 149.611 63.464C149.611 64.36 149.387 65.152 148.939 65.84C148.507 66.512 147.875 67.04 147.043 67.424C146.211 67.808 145.227 68 144.091 68H136.867V51.248H143.779C144.915 51.248 145.891 51.432 146.707 51.8C147.539 52.168 148.163 52.68 148.579 53.336C149.011 53.992 149.227 54.736 149.227 55.568C149.227 56.544 148.963 57.36 148.435 58.016C147.923 58.672 147.235 59.136 146.371 59.408ZM140.227 58.16H143.299C144.099 58.16 144.715 57.984 145.147 57.632C145.579 57.264 145.795 56.744 145.795 56.072C145.795 55.4 145.579 54.88 145.147 54.512C144.715 54.144 144.099 53.96 143.299 53.96H140.227V58.16ZM143.611 65.264C144.427 65.264 145.059 65.072 145.507 64.688C145.971 64.304 146.203 63.76 146.203 63.056C146.203 62.336 145.963 61.776 145.483 61.376C145.003 60.96 144.355 60.752 143.539 60.752H140.227V65.264H143.611ZM160.065 68.168C158.497 68.168 157.057 67.8 155.745 67.064C154.433 66.328 153.393 65.312 152.625 64.016C151.857 62.704 151.473 61.224 151.473 59.576C151.473 57.944 151.857 56.48 152.625 55.184C153.393 53.872 154.433 52.848 155.745 52.112C157.057 51.376 158.497 51.008 160.065 51.008C161.649 51.008 163.089 51.376 164.385 52.112C165.697 52.848 166.729 53.872 167.481 55.184C168.249 56.48 168.633 57.944 168.633 59.576C168.633 61.224 168.249 62.704 167.481 64.016C166.729 65.312 165.697 66.328 164.385 67.064C163.073 67.8 161.633 68.168 160.065 68.168ZM160.065 65.168C161.073 65.168 161.961 64.944 162.729 64.496C163.497 64.032 164.097 63.376 164.529 62.528C164.961 61.68 165.177 60.696 165.177 59.576C165.177 58.456 164.961 57.48 164.529 56.648C164.097 55.8 163.497 55.152 162.729 54.704C161.961 54.256 161.073 54.032 160.065 54.032C159.057 54.032 158.161 54.256 157.377 54.704C156.609 55.152 156.009 55.8 155.577 56.648C155.145 57.48 154.929 58.456 154.929 59.576C154.929 60.696 155.145 61.68 155.577 62.528C156.009 63.376 156.609 64.032 157.377 64.496C158.161 64.944 159.057 65.168 160.065 65.168ZM181.405 64.808H174.733L173.629 68H170.101L176.125 51.224H180.037L186.061 68H182.509L181.405 64.808ZM180.493 62.12L178.069 55.112L175.645 62.12H180.493ZM196.952 68L193.256 61.472H191.672V68H188.312V51.248H194.6C195.896 51.248 197 51.48 197.912 51.944C198.824 52.392 199.504 53.008 199.952 53.792C200.416 54.56 200.648 55.424 200.648 56.384C200.648 57.488 200.328 58.488 199.688 59.384C199.048 60.264 198.096 60.872 196.832 61.208L200.84 68H196.952ZM191.672 58.952H194.48C195.392 58.952 196.072 58.736 196.52 58.304C196.968 57.856 197.192 57.24 197.192 56.456C197.192 55.688 196.968 55.096 196.52 54.68C196.072 54.248 195.392 54.032 194.48 54.032H191.672V58.952ZM209.543 51.248C211.303 51.248 212.847 51.592 214.175 52.28C215.519 52.968 216.551 53.952 217.271 55.232C218.007 56.496 218.375 57.968 218.375 59.648C218.375 61.328 218.007 62.8 217.271 64.064C216.551 65.312 215.519 66.28 214.175 66.968C212.847 67.656 211.303 68 209.543 68H203.687V51.248H209.543ZM209.423 65.144C211.183 65.144 212.543 64.664 213.503 63.704C214.463 62.744 214.943 61.392 214.943 59.648C214.943 57.904 214.463 56.544 213.503 55.568C212.543 54.576 211.183 54.08 209.423 54.08H207.047V65.144H209.423Z" fill="white"/>
<path d="M47.4609 89.624V98H45.7809V92.552L43.5369 98H42.2649L40.0089 92.552V98H38.3289V89.624H40.2369L42.9009 95.852L45.5649 89.624H47.4609ZM48.4498 94.652C48.4498 93.98 48.5818 93.384 48.8458 92.864C49.1178 92.344 49.4818 91.944 49.9378 91.664C50.4018 91.384 50.9178 91.244 51.4858 91.244C51.9818 91.244 52.4138 91.344 52.7818 91.544C53.1578 91.744 53.4578 91.996 53.6818 92.3V91.352H55.3738V98H53.6818V97.028C53.4658 97.34 53.1658 97.6 52.7818 97.808C52.4058 98.008 51.9698 98.108 51.4738 98.108C50.9138 98.108 50.4018 97.964 49.9378 97.676C49.4818 97.388 49.1178 96.984 48.8458 96.464C48.5818 95.936 48.4498 95.332 48.4498 94.652ZM53.6818 94.676C53.6818 94.268 53.6018 93.92 53.4418 93.632C53.2818 93.336 53.0658 93.112 52.7938 92.96C52.5218 92.8 52.2298 92.72 51.9178 92.72C51.6058 92.72 51.3178 92.796 51.0538 92.948C50.7898 93.1 50.5738 93.324 50.4058 93.62C50.2458 93.908 50.1658 94.252 50.1658 94.652C50.1658 95.052 50.2458 95.404 50.4058 95.708C50.5738 96.004 50.7898 96.232 51.0538 96.392C51.3258 96.552 51.6138 96.632 51.9178 96.632C52.2298 96.632 52.5218 96.556 52.7938 96.404C53.0658 96.244 53.2818 96.02 53.4418 95.732C53.6018 95.436 53.6818 95.084 53.6818 94.676ZM58.4546 92.384C58.6706 92.032 58.9506 91.756 59.2946 91.556C59.6466 91.356 60.0466 91.256 60.4946 91.256V93.02H60.0506C59.5226 93.02 59.1226 93.144 58.8506 93.392C58.5866 93.64 58.4546 94.072 58.4546 94.688V98H56.7746V91.352H58.4546V92.384ZM65.3222 98L63.0662 95.168V98H61.3862V89.12H63.0662V94.172L65.2982 91.352H67.4822L64.5542 94.688L67.5062 98H65.3222ZM74.334 94.532C74.334 94.772 74.318 94.988 74.286 95.18H69.426C69.466 95.66 69.634 96.036 69.93 96.308C70.226 96.58 70.59 96.716 71.022 96.716C71.646 96.716 72.09 96.448 72.354 95.912H74.166C73.974 96.552 73.606 97.08 73.062 97.496C72.518 97.904 71.85 98.108 71.058 98.108C70.418 98.108 69.842 97.968 69.33 97.688C68.826 97.4 68.43 96.996 68.142 96.476C67.862 95.956 67.722 95.356 67.722 94.676C67.722 93.988 67.862 93.384 68.142 92.864C68.422 92.344 68.814 91.944 69.318 91.664C69.822 91.384 70.402 91.244 71.058 91.244C71.69 91.244 72.254 91.38 72.75 91.652C73.254 91.924 73.642 92.312 73.914 92.816C74.194 93.312 74.334 93.884 74.334 94.532ZM72.594 94.052C72.586 93.62 72.43 93.276 72.126 93.02C71.822 92.756 71.45 92.624 71.01 92.624C70.594 92.624 70.242 92.752 69.954 93.008C69.674 93.256 69.502 93.604 69.438 94.052H72.594ZM77.2763 92.732V95.948C77.2763 96.172 77.3283 96.336 77.4323 96.44C77.5443 96.536 77.7283 96.584 77.9843 96.584H78.7643V98H77.7083C76.2923 98 75.5843 97.312 75.5843 95.936V92.732H74.7923V91.352H75.5843V89.708H77.2763V91.352H78.7643V92.732H77.2763ZM80.5846 90.56C80.2886 90.56 80.0406 90.468 79.8406 90.284C79.6486 90.092 79.5526 89.856 79.5526 89.576C79.5526 89.296 79.6486 89.064 79.8406 88.88C80.0406 88.688 80.2886 88.592 80.5846 88.592C80.8806 88.592 81.1246 88.688 81.3166 88.88C81.5166 89.064 81.6166 89.296 81.6166 89.576C81.6166 89.856 81.5166 90.092 81.3166 90.284C81.1246 90.468 80.8806 90.56 80.5846 90.56ZM81.4126 91.352V98H79.7326V91.352H81.4126ZM86.5165 91.256C87.3085 91.256 87.9485 91.508 88.4365 92.012C88.9245 92.508 89.1685 93.204 89.1685 94.1V98H87.4885V94.328C87.4885 93.8 87.3565 93.396 87.0925 93.116C86.8285 92.828 86.4685 92.684 86.0125 92.684C85.5485 92.684 85.1805 92.828 84.9085 93.116C84.6445 93.396 84.5125 93.8 84.5125 94.328V98H82.8325V91.352H84.5125V92.18C84.7365 91.892 85.0205 91.668 85.3645 91.508C85.7165 91.34 86.1005 91.256 86.5165 91.256ZM93.1301 91.244C93.6261 91.244 94.0621 91.344 94.4381 91.544C94.8141 91.736 95.1101 91.988 95.3261 92.3V91.352H97.0181V98.048C97.0181 98.664 96.8941 99.212 96.6461 99.692C96.3981 100.18 96.0261 100.564 95.5301 100.844C95.0341 101.132 94.4341 101.276 93.7301 101.276C92.7861 101.276 92.0101 101.056 91.4021 100.616C90.8021 100.176 90.4621 99.576 90.3821 98.816H92.0501C92.1381 99.12 92.3261 99.36 92.6141 99.536C92.9101 99.72 93.2661 99.812 93.6821 99.812C94.1701 99.812 94.5661 99.664 94.8701 99.368C95.1741 99.08 95.3261 98.64 95.3261 98.048V97.016C95.1101 97.328 94.8101 97.588 94.4261 97.796C94.0501 98.004 93.6181 98.108 93.1301 98.108C92.5701 98.108 92.0581 97.964 91.5941 97.676C91.1301 97.388 90.7621 96.984 90.4901 96.464C90.2261 95.936 90.0941 95.332 90.0941 94.652C90.0941 93.98 90.2261 93.384 90.4901 92.864C90.7621 92.344 91.1261 91.944 91.5821 91.664C92.0461 91.384 92.5621 91.244 93.1301 91.244ZM95.3261 94.676C95.3261 94.268 95.2461 93.92 95.0861 93.632C94.9261 93.336 94.7101 93.112 94.4381 92.96C94.1661 92.8 93.8741 92.72 93.5621 92.72C93.2501 92.72 92.9621 92.796 92.6981 92.948C92.4341 93.1 92.2181 93.324 92.0501 93.62C91.8901 93.908 91.8101 94.252 91.8101 94.652C91.8101 95.052 91.8901 95.404 92.0501 95.708C92.2181 96.004 92.4341 96.232 92.6981 96.392C92.9701 96.552 93.2581 96.632 93.5621 96.632C93.8741 96.632 94.1661 96.556 94.4381 96.404C94.7101 96.244 94.9261 96.02 95.0861 95.732C95.2461 95.436 95.3261 95.084 95.3261 94.676ZM100.63 93.8C100.63 92.976 100.814 92.24 101.182 91.592C101.558 90.936 102.066 90.428 102.706 90.068C103.354 89.7 104.078 89.516 104.878 89.516C105.814 89.516 106.634 89.756 107.338 90.236C108.042 90.716 108.534 91.38 108.814 92.228H106.882C106.69 91.828 106.418 91.528 106.066 91.328C105.722 91.128 105.322 91.028 104.866 91.028C104.378 91.028 103.942 91.144 103.558 91.376C103.182 91.6 102.886 91.92 102.67 92.336C102.462 92.752 102.358 93.24 102.358 93.8C102.358 94.352 102.462 94.84 102.67 95.264C102.886 95.68 103.182 96.004 103.558 96.236C103.942 96.46 104.378 96.572 104.866 96.572C105.322 96.572 105.722 96.472 106.066 96.272C106.418 96.064 106.69 95.76 106.882 95.36H108.814C108.534 96.216 108.042 96.884 107.338 97.364C106.642 97.836 105.822 98.072 104.878 98.072C104.078 98.072 103.354 97.892 102.706 97.532C102.066 97.164 101.558 96.656 101.182 96.008C100.814 95.36 100.63 94.624 100.63 93.8ZM109.577 94.652C109.577 93.98 109.709 93.384 109.973 92.864C110.245 92.344 110.609 91.944 111.065 91.664C111.529 91.384 112.045 91.244 112.613 91.244C113.109 91.244 113.541 91.344 113.909 91.544C114.285 91.744 114.585 91.996 114.809 92.3V91.352H116.501V98H114.809V97.028C114.593 97.34 114.293 97.6 113.909 97.808C113.533 98.008 113.097 98.108 112.601 98.108C112.041 98.108 111.529 97.964 111.065 97.676C110.609 97.388 110.245 96.984 109.973 96.464C109.709 95.936 109.577 95.332 109.577 94.652ZM114.809 94.676C114.809 94.268 114.729 93.92 114.569 93.632C114.409 93.336 114.193 93.112 113.921 92.96C113.649 92.8 113.357 92.72 113.045 92.72C112.733 92.72 112.445 92.796 112.181 92.948C111.917 93.1 111.701 93.324 111.533 93.62C111.373 93.908 111.293 94.252 111.293 94.652C111.293 95.052 111.373 95.404 111.533 95.708C111.701 96.004 111.917 96.232 112.181 96.392C112.453 96.552 112.741 96.632 113.045 96.632C113.357 96.632 113.649 96.556 113.921 96.404C114.193 96.244 114.409 96.02 114.569 95.732C114.729 95.436 114.809 95.084 114.809 94.676ZM126.158 91.256C126.974 91.256 127.63 91.508 128.126 92.012C128.63 92.508 128.882 93.204 128.882 94.1V98H127.202V94.328C127.202 93.808 127.07 93.412 126.806 93.14C126.542 92.86 126.182 92.72 125.726 92.72C125.27 92.72 124.906 92.86 124.634 93.14C124.37 93.412 124.238 93.808 124.238 94.328V98H122.558V94.328C122.558 93.808 122.426 93.412 122.162 93.14C121.898 92.86 121.538 92.72 121.082 92.72C120.618 92.72 120.25 92.86 119.978 93.14C119.714 93.412 119.582 93.808 119.582 94.328V98H117.902V91.352H119.582V92.156C119.798 91.876 120.074 91.656 120.41 91.496C120.754 91.336 121.13 91.256 121.538 91.256C122.058 91.256 122.522 91.368 122.93 91.592C123.338 91.808 123.654 92.12 123.878 92.528C124.094 92.144 124.406 91.836 124.814 91.604C125.23 91.372 125.678 91.256 126.158 91.256ZM131.916 92.312C132.132 92.008 132.428 91.756 132.804 91.556C133.188 91.348 133.624 91.244 134.112 91.244C134.68 91.244 135.192 91.384 135.648 91.664C136.112 91.944 136.476 92.344 136.74 92.864C137.012 93.376 137.148 93.972 137.148 94.652C137.148 95.332 137.012 95.936 136.74 96.464C136.476 96.984 136.112 97.388 135.648 97.676C135.192 97.964 134.68 98.108 134.112 98.108C133.624 98.108 133.192 98.008 132.816 97.808C132.448 97.608 132.148 97.356 131.916 97.052V101.168H130.236V91.352H131.916V92.312ZM135.432 94.652C135.432 94.252 135.348 93.908 135.18 93.62C135.02 93.324 134.804 93.1 134.532 92.948C134.268 92.796 133.98 92.72 133.668 92.72C133.364 92.72 133.076 92.8 132.804 92.96C132.54 93.112 132.324 93.336 132.156 93.632C131.996 93.928 131.916 94.276 131.916 94.676C131.916 95.076 131.996 95.424 132.156 95.72C132.324 96.016 132.54 96.244 132.804 96.404C133.076 96.556 133.364 96.632 133.668 96.632C133.98 96.632 134.268 96.552 134.532 96.392C134.804 96.232 135.02 96.004 135.18 95.708C135.348 95.412 135.432 95.06 135.432 94.652ZM137.697 94.652C137.697 93.98 137.829 93.384 138.093 92.864C138.365 92.344 138.729 91.944 139.185 91.664C139.649 91.384 140.165 91.244 140.733 91.244C141.229 91.244 141.661 91.344 142.029 91.544C142.405 91.744 142.705 91.996 142.929 92.3V91.352H144.621V98H142.929V97.028C142.713 97.34 142.413 97.6 142.029 97.808C141.653 98.008 141.217 98.108 140.721 98.108C140.161 98.108 139.649 97.964 139.185 97.676C138.729 97.388 138.365 96.984 138.093 96.464C137.829 95.936 137.697 95.332 137.697 94.652ZM142.929 94.676C142.929 94.268 142.849 93.92 142.689 93.632C142.529 93.336 142.313 93.112 142.041 92.96C141.769 92.8 141.477 92.72 141.165 92.72C140.853 92.72 140.565 92.796 140.301 92.948C140.037 93.1 139.821 93.324 139.653 93.62C139.493 93.908 139.413 94.252 139.413 94.652C139.413 95.052 139.493 95.404 139.653 95.708C139.821 96.004 140.037 96.232 140.301 96.392C140.573 96.552 140.861 96.632 141.165 96.632C141.477 96.632 141.769 96.556 142.041 96.404C142.313 96.244 142.529 96.02 142.689 95.732C142.849 95.436 142.929 95.084 142.929 94.676ZM146.874 90.56C146.578 90.56 146.33 90.468 146.13 90.284C145.938 90.092 145.842 89.856 145.842 89.576C145.842 89.296 145.938 89.064 146.13 88.88C146.33 88.688 146.578 88.592 146.874 88.592C147.17 88.592 147.414 88.688 147.606 88.88C147.806 89.064 147.906 89.296 147.906 89.576C147.906 89.856 147.806 90.092 147.606 90.284C147.414 90.468 147.17 90.56 146.874 90.56ZM147.702 91.352V98H146.022V91.352H147.702ZM151.726 91.244C152.222 91.244 152.658 91.344 153.034 91.544C153.41 91.736 153.706 91.988 153.922 92.3V91.352H155.614V98.048C155.614 98.664 155.49 99.212 155.242 99.692C154.994 100.18 154.622 100.564 154.126 100.844C153.63 101.132 153.03 101.276 152.326 101.276C151.382 101.276 150.606 101.056 149.998 100.616C149.398 100.176 149.058 99.576 148.978 98.816H150.646C150.734 99.12 150.922 99.36 151.21 99.536C151.506 99.72 151.862 99.812 152.278 99.812C152.766 99.812 153.162 99.664 153.466 99.368C153.77 99.08 153.922 98.64 153.922 98.048V97.016C153.706 97.328 153.406 97.588 153.022 97.796C152.646 98.004 152.214 98.108 151.726 98.108C151.166 98.108 150.654 97.964 150.19 97.676C149.726 97.388 149.358 96.984 149.086 96.464C148.822 95.936 148.69 95.332 148.69 94.652C148.69 93.98 148.822 93.384 149.086 92.864C149.358 92.344 149.722 91.944 150.178 91.664C150.642 91.384 151.158 91.244 151.726 91.244ZM153.922 94.676C153.922 94.268 153.842 93.92 153.682 93.632C153.522 93.336 153.306 93.112 153.034 92.96C152.762 92.8 152.47 92.72 152.158 92.72C151.846 92.72 151.558 92.796 151.294 92.948C151.03 93.1 150.814 93.324 150.646 93.62C150.486 93.908 150.406 94.252 150.406 94.652C150.406 95.052 150.486 95.404 150.646 95.708C150.814 96.004 151.03 96.232 151.294 96.392C151.566 96.552 151.854 96.632 152.158 96.632C152.47 96.632 152.762 96.556 153.034 96.404C153.306 96.244 153.522 96.02 153.682 95.732C153.842 95.436 153.922 95.084 153.922 94.676ZM160.698 91.256C161.49 91.256 162.13 91.508 162.618 92.012C163.106 92.508 163.35 93.204 163.35 94.1V98H161.67V94.328C161.67 93.8 161.538 93.396 161.274 93.116C161.01 92.828 160.65 92.684 160.194 92.684C159.73 92.684 159.362 92.828 159.09 93.116C158.826 93.396 158.694 93.8 158.694 94.328V98H157.014V91.352H158.694V92.18C158.918 91.892 159.202 91.668 159.546 91.508C159.898 91.34 160.282 91.256 160.698 91.256ZM172.463 96.404H169.127L168.575 98H166.811L169.823 89.612H171.779L174.791 98H173.015L172.463 96.404ZM172.007 95.06L170.795 91.556L169.583 95.06H172.007ZM179.361 91.256C180.153 91.256 180.793 91.508 181.281 92.012C181.769 92.508 182.013 93.204 182.013 94.1V98H180.333V94.328C180.333 93.8 180.201 93.396 179.937 93.116C179.673 92.828 179.313 92.684 178.857 92.684C178.393 92.684 178.025 92.828 177.753 93.116C177.489 93.396 177.357 93.8 177.357 94.328V98H175.677V91.352H177.357V92.18C177.581 91.892 177.865 91.668 178.209 91.508C178.561 91.34 178.945 91.256 179.361 91.256ZM182.939 94.652C182.939 93.98 183.071 93.384 183.335 92.864C183.607 92.344 183.971 91.944 184.427 91.664C184.891 91.384 185.407 91.244 185.975 91.244C186.471 91.244 186.903 91.344 187.271 91.544C187.647 91.744 187.947 91.996 188.171 92.3V91.352H189.863V98H188.171V97.028C187.955 97.34 187.655 97.6 187.271 97.808C186.895 98.008 186.459 98.108 185.963 98.108C185.403 98.108 184.891 97.964 184.427 97.676C183.971 97.388 183.607 96.984 183.335 96.464C183.071 95.936 182.939 95.332 182.939 94.652ZM188.171 94.676C188.171 94.268 188.091 93.92 187.931 93.632C187.771 93.336 187.555 93.112 187.283 92.96C187.011 92.8 186.719 92.72 186.407 92.72C186.095 92.72 185.807 92.796 185.543 92.948C185.279 93.1 185.063 93.324 184.895 93.62C184.735 93.908 184.655 94.252 184.655 94.652C184.655 95.052 184.735 95.404 184.895 95.708C185.063 96.004 185.279 96.232 185.543 96.392C185.815 96.552 186.103 96.632 186.407 96.632C186.719 96.632 187.011 96.556 187.283 96.404C187.555 96.244 187.771 96.02 187.931 95.732C188.091 95.436 188.171 95.084 188.171 94.676ZM192.944 89.12V98H191.264V89.12H192.944ZM200.724 91.352L196.608 101.144H194.82L196.26 97.832L193.596 91.352H195.48L197.196 95.996L198.936 91.352H200.724ZM203.933 98.108C203.389 98.108 202.901 98.012 202.469 97.82C202.037 97.62 201.693 97.352 201.437 97.016C201.189 96.68 201.053 96.308 201.029 95.9H202.721C202.753 96.156 202.877 96.368 203.093 96.536C203.317 96.704 203.593 96.788 203.921 96.788C204.241 96.788 204.489 96.724 204.665 96.596C204.849 96.468 204.941 96.304 204.941 96.104C204.941 95.888 204.829 95.728 204.605 95.624C204.389 95.512 204.041 95.392 203.561 95.264C203.065 95.144 202.657 95.02 202.337 94.892C202.025 94.764 201.753 94.568 201.521 94.304C201.297 94.04 201.185 93.684 201.185 93.236C201.185 92.868 201.289 92.532 201.497 92.228C201.713 91.924 202.017 91.684 202.409 91.508C202.809 91.332 203.277 91.244 203.813 91.244C204.605 91.244 205.237 91.444 205.709 91.844C206.181 92.236 206.441 92.768 206.489 93.44H204.881C204.857 93.176 204.745 92.968 204.545 92.816C204.353 92.656 204.093 92.576 203.765 92.576C203.461 92.576 203.225 92.632 203.057 92.744C202.897 92.856 202.817 93.012 202.817 93.212C202.817 93.436 202.929 93.608 203.153 93.728C203.377 93.84 203.725 93.956 204.197 94.076C204.677 94.196 205.073 94.32 205.385 94.448C205.697 94.576 205.965 94.776 206.189 95.048C206.421 95.312 206.541 95.664 206.549 96.104C206.549 96.488 206.441 96.832 206.225 97.136C206.017 97.44 205.713 97.68 205.313 97.856C204.921 98.024 204.461 98.108 203.933 98.108ZM208.54 90.56C208.244 90.56 207.996 90.468 207.796 90.284C207.604 90.092 207.508 89.856 207.508 89.576C207.508 89.296 207.604 89.064 207.796 88.88C207.996 88.688 208.244 88.592 208.54 88.592C208.836 88.592 209.08 88.688 209.272 88.88C209.472 89.064 209.572 89.296 209.572 89.576C209.572 89.856 209.472 90.092 209.272 90.284C209.08 90.468 208.836 90.56 208.54 90.56ZM209.368 91.352V98H207.688V91.352H209.368ZM213.332 98.108C212.788 98.108 212.3 98.012 211.868 97.82C211.436 97.62 211.092 97.352 210.836 97.016C210.588 96.68 210.452 96.308 210.428 95.9H212.12C212.152 96.156 212.276 96.368 212.492 96.536C212.716 96.704 212.992 96.788 213.32 96.788C213.64 96.788 213.888 96.724 214.064 96.596C214.248 96.468 214.34 96.304 214.34 96.104C214.34 95.888 214.228 95.728 214.004 95.624C213.788 95.512 213.44 95.392 212.96 95.264C212.464 95.144 212.056 95.02 211.736 94.892C211.424 94.764 211.152 94.568 210.92 94.304C210.696 94.04 210.584 93.684 210.584 93.236C210.584 92.868 210.688 92.532 210.896 92.228C211.112 91.924 211.416 91.684 211.808 91.508C212.208 91.332 212.676 91.244 213.212 91.244C214.004 91.244 214.636 91.444 215.108 91.844C215.58 92.236 215.84 92.768 215.888 93.44H214.28C214.256 93.176 214.144 92.968 213.944 92.816C213.752 92.656 213.492 92.576 213.164 92.576C212.86 92.576 212.624 92.632 212.456 92.744C212.296 92.856 212.216 93.012 212.216 93.212C212.216 93.436 212.328 93.608 212.552 93.728C212.776 93.84 213.124 93.956 213.596 94.076C214.076 94.196 214.472 94.32 214.784 94.448C215.096 94.576 215.364 94.776 215.588 95.048C215.82 95.312 215.94 95.664 215.948 96.104C215.948 96.488 215.84 96.832 215.624 97.136C215.416 97.44 215.112 97.68 214.712 97.856C214.32 98.024 213.86 98.108 213.332 98.108Z" fill="#CCD0CF"/>
<g clip-path="url(#clip0_10_5)">
<path d="M55.5 71H42.5C39.47 71 37 68.4271 37 65.2708V51.7292C37 48.5729 39.47 46 42.5 46H55.5C58.53 46 61 48.5729 61 51.7292V65.2708C61 68.4271 58.53 71 55.5 71ZM58 51.7292C58 50.2917 56.88 49.125 55.5 49.125H42.5C41.12 49.125 40 50.2917 40 51.7292V65.2708C40 66.7083 41.12 67.875 42.5 67.875H55.5C56.88 67.875 58 66.7083 58 65.2708V51.7292ZM45 61.1042V52.7708C45 51.9063 44.33 51.2083 43.5 51.2083C42.67 51.2083 42 51.9063 42 52.7708V61.1042C42 61.9688 42.67 62.6667 43.5 62.6667C44.33 62.6667 45 61.9688 45 61.1042ZM50.5 64.2292V52.7708C50.5 51.9063 49.83 51.2083 49 51.2083C48.17 51.2083 47.5 51.9063 47.5 52.7708V64.2292C47.5 65.0938 48.17 65.7917 49 65.7917C49.83 65.7917 50.5 65.0938 50.5 64.2292ZM56 54.8542V52.7708C56 51.9063 55.33 51.2083 54.5 51.2083C53.67 51.2083 53 51.9063 53 52.7708V54.8542C53 55.7188 53.67 56.4167 54.5 56.4167C55.33 56.4167 56 55.7188 56 54.8542Z" fill="white"/>
</g>
<g opacity="0.5" filter="url(#filter11_d_10_5)">
<line x1="38.5" y1="123.5" x2="222.5" y2="123.5" stroke="white" stroke-linecap="round"/>
</g>
<defs>
<filter id="filter0_d_10_5" x="184" y="4" width="1313" height="839" filterUnits="userSpaceOnUse" color-interpolation-filters="sRGB">
<feFlood flood-opacity="0" result="BackgroundImageFix"/>
<feColorMatrix in="SourceAlpha" type="matrix" values="0 0 0 0 0 0 0 0 0 0 0 0 0 0 0 0 0 0 127 0" result="hardAlpha"/>
<feMorphology radius="3" operator="dilate" in="SourceAlpha" result="effect1_dropShadow_10_5"/>
<feOffset dx="5" dy="2"/>
<feGaussianBlur stdDeviation="7.5"/>
<feComposite in2="hardAlpha" operator="out"/>
<feColorMatrix type="matrix" values="0 0 0 0 0.294118 0 0 0 0 0.305882 0 0 0 0 0.333333 0 0 0 0.25 0"/>
<feBlend mode="normal" in2="BackgroundImageFix" result="effect1_dropShadow_10_5"/>
<feBlend mode="normal" in="SourceGraphic" in2="effect1_dropShadow_10_5" result="shape"/>
</filter>
<filter id="filter1_d_10_5" x="23" y="15" width="225" height="819" filterUnits="userSpaceOnUse" color-interpolation-filters="sRGB">
<feFlood flood-opacity="0" result="BackgroundImageFix"/>
<feColorMatrix in="SourceAlpha" type="matrix" values="0 0 0 0 0 0 0 0 0 0 0 0 0 0 0 0 0 0 127 0" result="hardAlpha"/>
<feOffset dx="8" dy="4"/>
<feGaussianBlur stdDeviation="4"/>
<feComposite in2="hardAlpha" operator="out"/>
<feColorMatrix type="matrix" values="0 0 0 0 0 0 0 0 0 0 0 0 0 0 0 0 0 0 0.25 0"/>
<feBlend mode="normal" in2="BackgroundImageFix" result="effect1_dropShadow_10_5"/>
<feBlend mode="normal" in="SourceGraphic" in2="effect1_dropShadow_10_5" result="shape"/>
</filter>
<filter id="filter2_d_10_5" x="267" y="49" width="227" height="187" filterUnits="userSpaceOnUse" color-interpolation-filters="sRGB">
<feFlood flood-opacity="0" result="BackgroundImageFix"/>
<feColorMatrix in="SourceAlpha" type="matrix" values="0 0 0 0 0 0 0 0 0 0 0 0 0 0 0 0 0 0 127 0" result="hardAlpha"/>
<feMorphology radius="2" operator="dilate" in="SourceAlpha" result="effect1_dropShadow_10_5"/>
<feOffset dx="5" dy="4"/>
<feGaussianBlur stdDeviation="2.5"/>
<feComposite in2="hardAlpha" operator="out"/>
<feColorMatrix type="matrix" values="0 0 0 0 0.901961 0 0 0 0 0.901961 0 0 0 0 0.901961 0 0 0 1 0"/>
<feBlend mode="normal" in2="BackgroundImageFix" result="effect1_dropShadow_10_5"/>
<feBlend mode="normal" in="SourceGraphic" in2="effect1_dropShadow_10_5" result="shape"/>
</filter>
<filter id="filter3_d_10_5" x="493" y="49" width="227" height="187" filterUnits="userSpaceOnUse" color-interpolation-filters="sRGB">
<feFlood flood-opacity="0" result="BackgroundImageFix"/>
<feColorMatrix in="SourceAlpha" type="matrix" values="0 0 0 0 0 0 0 0 0 0 0 0 0 0 0 0 0 0 127 0" result="hardAlpha"/>
<feMorphology radius="2" operator="dilate" in="SourceAlpha" result="effect1_dropShadow_10_5"/>
<feOffset dx="5" dy="4"/>
<feGaussianBlur stdDeviation="2.5"/>
<feComposite in2="hardAlpha" operator="out"/>
<feColorMatrix type="matrix" values="0 0 0 0 0.901961 0 0 0 0 0.901961 0 0 0 0 0.901961 0 0 0 1 0"/>
<feBlend mode="normal" in2="BackgroundImageFix" result="effect1_dropShadow_10_5"/>
<feBlend mode="normal" in="SourceGraphic" in2="effect1_dropShadow_10_5" result="shape"/>
</filter>
<filter id="filter4_d_10_5" x="719" y="49" width="227" height="187" filterUnits="userSpaceOnUse" color-interpolation-filters="sRGB">
<feFlood flood-opacity="0" result="BackgroundImageFix"/>
<feColorMatrix in="SourceAlpha" type="matrix" values="0 0 0 0 0 0 0 0 0 0 0 0 0 0 0 0 0 0 127 0" result="hardAlpha"/>
<feMorphology radius="2" operator="dilate" in="SourceAlpha" result="effect1_dropShadow_10_5"/>
<feOffset dx="5" dy="4"/>
<feGaussianBlur stdDeviation="2.5"/>
<feComposite in2="hardAlpha" operator="out"/>
<feColorMatrix type="matrix" values="0 0 0 0 0.901961 0 0 0 0 0.901961 0 0 0 0 0.901961 0 0 0 1 0"/>
<feBlend mode="normal" in2="BackgroundImageFix" result="effect1_dropShadow_10_5"/>
<feBlend mode="normal" in="SourceGraphic" in2="effect1_dropShadow_10_5" result="shape"/>
</filter>
<filter id="filter5_d_10_5" x="945" y="49" width="227" height="187" filterUnits="userSpaceOnUse" color-interpolation-filters="sRGB">
<feFlood flood-opacity="0" result="BackgroundImageFix"/>
<feColorMatrix in="SourceAlpha" type="matrix" values="0 0 0 0 0 0 0 0 0 0 0 0 0 0 0 0 0 0 127 0" result="hardAlpha"/>
<feMorphology radius="2" operator="dilate" in="SourceAlpha" result="effect1_dropShadow_10_5"/>
<feOffset dx="5" dy="4"/>
<feGaussianBlur stdDeviation="2.5"/>
<feComposite in2="hardAlpha" operator="out"/>
<feColorMatrix type="matrix" values="0 0 0 0 0.901961 0 0 0 0 0.901961 0 0 0 0 0.901961 0 0 0 1 0"/>
<feBlend mode="normal" in2="BackgroundImageFix" result="effect1_dropShadow_10_5"/>
<feBlend mode="normal" in="SourceGraphic" in2="effect1_dropShadow_10_5" result="shape"/>
</filter>
<filter id="filter6_d_10_5" x="1171" y="49" width="227" height="187" filterUnits="userSpaceOnUse" color-interpolation-filters="sRGB">
<feFlood flood-opacity="0" result="BackgroundImageFix"/>
<feColorMatrix in="SourceAlpha" type="matrix" values="0 0 0 0 0 0 0 0 0 0 0 0 0 0 0 0 0 0 127 0" result="hardAlpha"/>
<feMorphology radius="2" operator="dilate" in="SourceAlpha" result="effect1_dropShadow_10_5"/>
<feOffset dx="5" dy="4"/>
<feGaussianBlur stdDeviation="2.5"/>
<feComposite in2="hardAlpha" operator="out"/>
<feColorMatrix type="matrix" values="0 0 0 0 0.901961 0 0 0 0 0.901961 0 0 0 0 0.901961 0 0 0 1 0"/>
<feBlend mode="normal" in2="BackgroundImageFix" result="effect1_dropShadow_10_5"/>
<feBlend mode="normal" in="SourceGraphic" in2="effect1_dropShadow_10_5" result="shape"/>
</filter>
<filter id="filter7_d_10_5" x="267" y="241" width="448" height="281" filterUnits="userSpaceOnUse" color-interpolation-filters="sRGB">
<feFlood flood-opacity="0" result="BackgroundImageFix"/>
<feColorMatrix in="SourceAlpha" type="matrix" values="0 0 0 0 0 0 0 0 0 0 0 0 0 0 0 0 0 0 127 0" result="hardAlpha"/>
<feMorphology radius="2" operator="dilate" in="SourceAlpha" result="effect1_dropShadow_10_5"/>
<feOffset dx="5" dy="4"/>
<feGaussianBlur stdDeviation="2.5"/>
<feComposite in2="hardAlpha" operator="out"/>
<feColorMatrix type="matrix" values="0 0 0 0 0.901961 0 0 0 0 0.901961 0 0 0 0 0.901961 0 0 0 1 0"/>
<feBlend mode="normal" in2="BackgroundImageFix" result="effect1_dropShadow_10_5"/>
<feBlend mode="normal" in="SourceGraphic" in2="effect1_dropShadow_10_5" result="shape"/>
</filter>
<filter id="filter8_d_10_5" x="723" y="241" width="273" height="281" filterUnits="userSpaceOnUse" color-interpolation-filters="sRGB">
<feFlood flood-opacity="0" result="BackgroundImageFix"/>
<feColorMatrix in="SourceAlpha" type="matrix" values="0 0 0 0 0 0 0 0 0 0 0 0 0 0 0 0 0 0 127 0" result="hardAlpha"/>
<feMorphology radius="2" operator="dilate" in="SourceAlpha" result="effect1_dropShadow_10_5"/>
<feOffset dx="5" dy="4"/>
<feGaussianBlur stdDeviation="2.5"/>
<feComposite in2="hardAlpha" operator="out"/>
<feColorMatrix type="matrix" values="0 0 0 0 0.901961 0 0 0 0 0.901961 0 0 0 0 0.901961 0 0 0 1 0"/>
<feBlend mode="normal" in2="BackgroundImageFix" result="effect1_dropShadow_10_5"/>
<feBlend mode="normal" in="SourceGraphic" in2="effect1_dropShadow_10_5" result="shape"/>
</filter>
<filter id="filter9_d_10_5" x="1004" y="241" width="448" height="281" filterUnits="userSpaceOnUse" color-interpolation-filters="sRGB">
<feFlood flood-opacity="0" result="BackgroundImageFix"/>
<feColorMatrix in="SourceAlpha" type="matrix" values="0 0 0 0 0 0 0 0 0 0 0 0 0 0 0 0 0 0 127 0" result="hardAlpha"/>
<feMorphology radius="2" operator="dilate" in="SourceAlpha" result="effect1_dropShadow_10_5"/>
<feOffset dx="5" dy="4"/>
<feGaussianBlur stdDeviation="2.5"/>
<feComposite in2="hardAlpha" operator="out"/>
<feColorMatrix type="matrix" values="0 0 0 0 0.901961 0 0 0 0 0.901961 0 0 0 0 0.901961 0 0 0 1 0"/>
<feBlend mode="normal" in2="BackgroundImageFix" result="effect1_dropShadow_10_5"/>
<feBlend mode="normal" in="SourceGraphic" in2="effect1_dropShadow_10_5" result="shape"/>
</filter>
<filter id="filter10_d_10_5" x="267" y="527" width="1184" height="287" filterUnits="userSpaceOnUse" color-interpolation-filters="sRGB">
<feFlood flood-opacity="0" result="BackgroundImageFix"/>
<feColorMatrix in="SourceAlpha" type="matrix" values="0 0 0 0 0 0 0 0 0 0 0 0 0 0 0 0 0 0 127 0" result="hardAlpha"/>
<feMorphology radius="2" operator="dilate" in="SourceAlpha" result="effect1_dropShadow_10_5"/>
<feOffset dx="5" dy="4"/>
<feGaussianBlur stdDeviation="2.5"/>
<feComposite in2="hardAlpha" operator="out"/>
<feColorMatrix type="matrix" values="0 0 0 0 0.901961 0 0 0 0 0.901961 0 0 0 0 0.901961 0 0 0 1 0"/>
<feBlend mode="normal" in2="BackgroundImageFix" result="effect1_dropShadow_10_5"/>
<feBlend mode="normal" in="SourceGraphic" in2="effect1_dropShadow_10_5" result="shape"/>
</filter>
<filter id="filter11_d_10_5" x="38" y="123" width="193" height="9.00002" filterUnits="userSpaceOnUse" color-interpolation-filters="sRGB">
<feFlood flood-opacity="0" result="BackgroundImageFix"/>
<feColorMatrix in="SourceAlpha" type="matrix" values="0 0 0 0 0 0 0 0 0 0 0 0 0 0 0 0 0 0 127 0" result="hardAlpha"/>
<feOffset dx="4" dy="4"/>
<feGaussianBlur stdDeviation="2"/>
<feComposite in2="hardAlpha" operator="out"/>
<feColorMatrix type="matrix" values="0 0 0 0 0 0 0 0 0 0 0 0 0 0 0 0 0 0 0.25 0"/>
<feBlend mode="normal" in2="BackgroundImageFix" result="effect1_dropShadow_10_5"/>
<feBlend mode="normal" in="SourceGraphic" in2="effect1_dropShadow_10_5" result="shape"/>
</filter>
<linearGradient id="paint0_linear_10_5" x1="214.056" y1="32" x2="102.492" y2="823.756" gradientUnits="userSpaceOnUse">
<stop offset="0.59" stop-color="#1D2630"/>
<stop offset="1" stop-color="#0C5C75"/>
</linearGradient>
<clipPath id="clip0_10_5">
<rect width="24" height="25" fill="white" transform="matrix(1 0 0 -1 37 71)"/>
</clipPath>
</defs>
</svg>
